<?xml version="1.0" encoding="UTF-8" standalone="no"?>
<svg xmlns="http://www.w3.org/2000/svg" xmlns:xlink="http://www.w3.org/1999/xlink" contentScriptType="application/ecmascript" contentStyleType="text/css" height="345px" preserveAspectRatio="none" style="width:1110px;height:345px;" version="1.1" viewBox="0 0 1110 345" width="1110px" zoomAndPan="magnify"><defs><filter height="300%" id="fxzumg30w3d5f" width="300%" x="-1" y="-1"><feGaussianBlur result="blurOut" stdDeviation="2.0"/><feColorMatrix in="blurOut" result="blurOut2" type="matrix" values="0 0 0 0 0 0 0 0 0 0 0 0 0 0 0 0 0 0 .4 0"/><feOffset dx="4.0" dy="4.0" in="blurOut2" result="blurOut3"/><feBlend in="SourceGraphic" in2="blurOut3" mode="normal"/></filter></defs><g><!--MD5=[53306aa41fc9b3e0b5d3bc60fc482f59]
cluster greeter-platform--><polygon fill="#FFFFFF" filter="url(#fxzumg30w3d5f)" points="550,246,697,246,704,268.2969,730,268.2969,730,333,550,333,550,246" style="stroke: #000000; stroke-width: 1.5;"/><line style="stroke: #000000; stroke-width: 1.5;" x1="550" x2="704" y1="268.2969" y2="268.2969"/><text fill="#000000" font-family="sans-serif" font-size="14" font-weight="bold" lengthAdjust="spacingAndGlyphs" textLength="141" x="554" y="260.9951">greeter-platform</text><!--MD5=[46f6f0e66b75c0d5810fee4577cc53ad]
cluster greeter-de--><polygon fill="#FFFFFF" filter="url(#fxzumg30w3d5f)" points="22,135,116,135,123,157.2969,363,157.2969,363,222,22,222,22,135" style="stroke: #000000; stroke-width: 1.5;"/><line style="stroke: #000000; stroke-width: 1.5;" x1="22" x2="123" y1="157.2969" y2="157.2969"/><text fill="#000000" font-family="sans-serif" font-size="14" font-weight="bold" lengthAdjust="spacingAndGlyphs" textLength="88" x="26" y="149.9951">greeter-de</text><!--MD5=[869cd2055216a112eb95782846e7489d]
cluster greeter-en--><polygon fill="#FFFFFF" filter="url(#fxzumg30w3d5f)" points="387,135,481,135,488,157.2969,729,157.2969,729,222,387,222,387,135" style="stroke: #000000; stroke-width: 1.5;"/><line style="stroke: #000000; stroke-width: 1.5;" x1="387" x2="488" y1="157.2969" y2="157.2969"/><text fill="#000000" font-family="sans-serif" font-size="14" font-weight="bold" lengthAdjust="spacingAndGlyphs" textLength="88" x="391" y="149.9951">greeter-en</text><!--MD5=[b49f2da5b2ca71411de3aef204b8c2e8]
cluster greeter-fr--><polygon fill="#FFFFFF" filter="url(#fxzumg30w3d5f)" points="753,135,841,135,848,157.2969,1088,157.2969,1088,222,753,222,753,135" style="stroke: #000000; stroke-width: 1.5;"/><line style="stroke: #000000; stroke-width: 1.5;" x1="753" x2="848" y1="157.2969" y2="157.2969"/><text fill="#000000" font-family="sans-serif" font-size="14" font-weight="bold" lengthAdjust="spacingAndGlyphs" textLength="82" x="757" y="149.9951">greeter-fr</text><!--MD5=[0397d3e085b94ba881d5f743245f2051]
cluster greeter-app--><polygon fill="#FFFFFF" filter="url(#fxzumg30w3d5f)" points="547,24,651,24,658,46.2969,733,46.2969,733,111,547,111,547,24" style="stroke: #000000; stroke-width: 1.5;"/><line style="stroke: #000000; stroke-width: 1.5;" x1="547" x2="658" y1="46.2969" y2="46.2969"/><text fill="#000000" font-family="sans-serif" font-size="14" font-weight="bold" lengthAdjust="spacingAndGlyphs" textLength="98" x="551" y="38.9951">greeter-app</text><!--MD5=[5e65a6d215d113cb52837a8bbd57cd16]
entity greeter-api@1.0.0--><rect fill="#FEFECE" filter="url(#fxzumg30w3d5f)" height="36.2969" style="stroke: #A80036; stroke-width: 1.5;" width="148" x="566" y="281"/><rect fill="#FEFECE" height="5" style="stroke: #A80036; stroke-width: 1.5;" width="10" x="561" y="286"/><rect fill="#FEFECE" height="5" style="stroke: #A80036; stroke-width: 1.5;" width="10" x="561" y="307.2969"/><text fill="#000000" font-family="sans-serif" font-size="14" lengthAdjust="spacingAndGlyphs" textLength="128" x="576" y="303.9951">greeter-api@1.0.0</text><!--MD5=[579146970ff21f97765a48ead375f9ac]
entity greeter-de@1.0.0--><rect fill="#FEFECE" filter="url(#fxzumg30w3d5f)" height="36.2969" style="stroke: #A80036; stroke-width: 1.5;" width="146" x="201" y="170"/><rect fill="#FEFECE" height="5" style="stroke: #A80036; stroke-width: 1.5;" width="10" x="196" y="175"/><rect fill="#FEFECE" height="5" style="stroke: #A80036; stroke-width: 1.5;" width="10" x="196" y="196.2969"/><text fill="#000000" font-family="sans-serif" font-size="14" lengthAdjust="spacingAndGlyphs" textLength="126" x="211" y="192.9951">greeter-de@1.0.0</text><!--MD5=[f1d32be9b314f9ef32e6ac467d7e7a1f]
entity date-util@2.0.0--><rect fill="#FEFECE" filter="url(#fxzumg30w3d5f)" height="36.2969" style="stroke: #A80036; stroke-width: 1.5;" width="128" x="38" y="170"/><rect fill="#FEFECE" height="5" style="stroke: #A80036; stroke-width: 1.5;" width="10" x="33" y="175"/><rect fill="#FEFECE" height="5" style="stroke: #A80036; stroke-width: 1.5;" width="10" x="33" y="196.2969"/><text fill="#000000" font-family="sans-serif" font-size="14" lengthAdjust="spacingAndGlyphs" textLength="108" x="48" y="192.9951">date-util@2.0.0</text><!--MD5=[a02cef65076d8ce57881eda0686062e7]
entity greeter-en@1.0.0--><rect fill="#FEFECE" filter="url(#fxzumg30w3d5f)" height="36.2969" style="stroke: #A80036; stroke-width: 1.5;" width="145" x="567.5" y="170"/><rect fill="#FEFECE" height="5" style="stroke: #A80036; stroke-width: 1.5;" width="10" x="562.5" y="175"/><rect fill="#FEFECE" height="5" style="stroke: #A80036; stroke-width: 1.5;" width="10" x="562.5" y="196.2969"/><text fill="#000000" font-family="sans-serif" font-size="14" lengthAdjust="spacingAndGlyphs" textLength="125" x="577.5" y="192.9951">greeter-en@1.0.0</text><!--MD5=[265842ec912857b94d1c078e2bae3a15]
entity date-util@1.0.0--><rect fill="#FEFECE" filter="url(#fxzumg30w3d5f)" height="36.2969" style="stroke: #A80036; stroke-width: 1.5;" width="129" x="403.5" y="170"/><rect fill="#FEFECE" height="5" style="stroke: #A80036; stroke-width: 1.5;" width="10" x="398.5" y="175"/><rect fill="#FEFECE" height="5" style="stroke: #A80036; stroke-width: 1.5;" width="10" x="398.5" y="196.2969"/><text fill="#000000" font-family="sans-serif" font-size="14" lengthAdjust="spacingAndGlyphs" textLength="109" x="413.5" y="192.9951">date-util@1.0.0</text><!--MD5=[9a3b7287e55895918e825a2293f0642a]
entity greeter-fr@1.0.0--><rect fill="#FEFECE" filter="url(#fxzumg30w3d5f)" height="36.2969" style="stroke: #A80036; stroke-width: 1.5;" width="139" x="932.5" y="170"/><rect fill="#FEFECE" height="5" style="stroke: #A80036; stroke-width: 1.5;" width="10" x="927.5" y="175"/><rect fill="#FEFECE" height="5" style="stroke: #A80036; stroke-width: 1.5;" width="10" x="927.5" y="196.2969"/><text fill="#000000" font-family="sans-serif" font-size="14" lengthAdjust="spacingAndGlyphs" textLength="119" x="942.5" y="192.9951">greeter-fr@1.0.0</text><!--MD5=[44d2b03dd9ee680cd180553dcea194c7]
entity date-util@3.0.0--><rect fill="#FEFECE" filter="url(#fxzumg30w3d5f)" height="36.2969" style="stroke: #A80036; stroke-width: 1.5;" width="128" x="769" y="170"/><rect fill="#FEFECE" height="5" style="stroke: #A80036; stroke-width: 1.5;" width="10" x="764" y="175"/><rect fill="#FEFECE" height="5" style="stroke: #A80036; stroke-width: 1.5;" width="10" x="764" y="196.2969"/><text fill="#000000" font-family="sans-serif" font-size="14" lengthAdjust="spacingAndGlyphs" textLength="108" x="779" y="192.9951">date-util@3.0.0</text><!--MD5=[f579260943af30a3113942f3684593f4]
entity greeter-app@1.0.0--><rect fill="#FEFECE" filter="url(#fxzumg30w3d5f)" height="36.2969" style="stroke: #A80036; stroke-width: 1.5;" width="154" x="563" y="59"/><rect fill="#FEFECE" height="5" style="stroke: #A80036; stroke-width: 1.5;" width="10" x="558" y="64"/><rect fill="#FEFECE" height="5" style="stroke: #A80036; stroke-width: 1.5;" width="10" x="558" y="85.2969"/><text fill="#000000" font-family="sans-serif" font-size="14" lengthAdjust="spacingAndGlyphs" textLength="134" x="573" y="81.9951">greeter-app@1.0.0</text><!--MD5=[aae2c0bad1a544b4cf6bf1743c2790fe]
link greeter-de@1.0.0 to greeter-api@1.0.0--><path d="M318.246,206.047 C338.982,213.779 364.11,222.786 387,230 C446.343,248.703 514.51,266.8354 565.124,279.666 " fill="none" id="greeter-de@1.0.0-&gt;greeter-api@1.0.0" style="stroke: #A80036; stroke-width: 1.0;"/><polygon fill="#A80036" points="570.276,280.969,562.5329,274.8826,565.4289,279.7419,560.5696,282.6379,570.276,280.969" style="stroke: #A80036; stroke-width: 1.0;"/><!--MD5=[c8eff370da549254bbd78b384a7d5c15]
reverse link date-util@2.0.0 to greeter-de@1.0.0--><path d="M171.291,188 C181.096,188 190.901,188 200.705,188 " fill="none" id="date-util@2.0.0&lt;-greeter-de@1.0.0" style="stroke: #A80036; stroke-width: 1.0;"/><polygon fill="#A80036" points="166.164,188,175.164,192,171.164,188,175.164,184,166.164,188" style="stroke: #A80036; stroke-width: 1.0;"/><!--MD5=[83895ac88e201cfeb6e94dd87ee878b3]
link greeter-en@1.0.0 to greeter-api@1.0.0--><path d="M640,206.031 C640,224.798 640,255.0547 640,275.6998 " fill="none" id="greeter-en@1.0.0-&gt;greeter-api@1.0.0" style="stroke: #A80036; stroke-width: 1.0;"/><polygon fill="#A80036" points="640,280.7286,644,271.7286,640,275.7286,636,271.7286,640,280.7286" style="stroke: #A80036; stroke-width: 1.0;"/><!--MD5=[7446f716f2fd547418ef07044f6d497a]
reverse link date-util@1.0.0 to greeter-en@1.0.0--><path d="M537.931,188 C547.675,188 557.418,188 567.162,188 " fill="none" id="date-util@1.0.0&lt;-greeter-en@1.0.0" style="stroke: #A80036; stroke-width: 1.0;"/><polygon fill="#A80036" points="532.836,188,541.836,192,537.836,188,541.836,184,532.836,188" style="stroke: #A80036; stroke-width: 1.0;"/><!--MD5=[8247a6c264cd0d00a7cb4c60ffea9550]
link greeter-fr@1.0.0 to greeter-api@1.0.0--><path d="M969.598,206.147 C953.501,214.177 933.566,223.403 915,230 C850.447,252.9368 774.724,271.0455 719.099,282.7894 " fill="none" id="greeter-fr@1.0.0-&gt;greeter-api@1.0.0" style="stroke: #A80036; stroke-width: 1.0;"/><polygon fill="#A80036" points="714.118,283.8353,723.7478,285.9011,719.0114,282.8081,722.1043,278.0717,714.118,283.8353" style="stroke: #A80036; stroke-width: 1.0;"/><!--MD5=[95328900b098e4b7f4363aeb58e41c5c]
reverse link date-util@3.0.0 to greeter-fr@1.0.0--><path d="M902.269,188 C912.278,188 922.288,188 932.297,188 " fill="none" id="date-util@3.0.0&lt;-greeter-fr@1.0.0" style="stroke: #A80036; stroke-width: 1.0;"/><polygon fill="#A80036" points="897.035,188,906.035,192,902.035,188,906.035,184,897.035,188" style="stroke: #A80036; stroke-width: 1.0;"/><!--MD5=[2acd40d8775e5dcb3a0683484e3c0350]
link greeter-app@1.0.0 to greeter-de@1.0.0--><path d="M562.879,86.882 C511.937,94.209 444.263,106.762 387,127 C357.942,137.269 327.188,154.032 305.113,167.233 " fill="none" id="greeter-app@1.0.0-&gt;greeter-de@1.0.0" style="stroke: #A80036; stroke-width: 1.0;"/><polygon fill="#A80036" points="300.816,169.823,310.5888,168.6014,305.0979,167.2413,306.4581,161.7504,300.816,169.823" style="stroke: #A80036; stroke-width: 1.0;"/><!--MD5=[832bba4fd17ec3980593f5273192ea77]
link greeter-app@1.0.0 to greeter-en@1.0.0--><path d="M640,95.031 C640,113.798 640,144.055 640,164.7 " fill="none" id="greeter-app@1.0.0-&gt;greeter-en@1.0.0" style="stroke: #A80036; stroke-width: 1.0;"/><polygon fill="#A80036" points="640,169.729,644,160.729,640,164.729,636,160.729,640,169.729" style="stroke: #A80036; stroke-width: 1.0;"/><!--MD5=[a70866cbcbe6d5ffaa155fe06b4c8c96]
link greeter-app@1.0.0 to greeter-fr@1.0.0--><path d="M717.141,82.92 C773.664,88.604 851.309,100.817 915,127 C938.31,136.583 961.652,153.156 978.282,166.459 " fill="none" id="greeter-app@1.0.0-&gt;greeter-fr@1.0.0" style="stroke: #A80036; stroke-width: 1.0;"/><polygon fill="#A80036" points="982.361,169.764,977.8882,160.9893,978.4768,166.6155,972.8507,167.2041,982.361,169.764" style="stroke: #A80036; stroke-width: 1.0;"/><!--MD5=[ef3a1073df32747985f0167fb60e2414]
@startuml
package "greeter-platform" {
  [greeter-api@1.0.0]
}
 
package "greeter-de" {
  [greeter-de@1.0.0]
  [greeter-de@1.0.0] -down-> [greeter-api@1.0.0]
  [greeter-de@1.0.0] -left-> [date-util@2.0.0]
}

package "greeter-en" {
  [greeter-en@1.0.0]
  [greeter-en@1.0.0] -down-> [greeter-api@1.0.0]
  [greeter-en@1.0.0] -left-> [date-util@1.0.0]
}

package "greeter-fr" {
  [greeter-fr@1.0.0]
  [greeter-fr@1.0.0] -down-> [greeter-api@1.0.0]
  [greeter-fr@1.0.0] -left-> [date-util@3.0.0]
}

package "greeter-app" {
  [greeter-app@1.0.0]
  [greeter-app@1.0.0] -down-> [greeter-de@1.0.0]
  [greeter-app@1.0.0] -down-> [greeter-en@1.0.0]
  [greeter-app@1.0.0] -down-> [greeter-fr@1.0.0]
}
@enduml

PlantUML version 1.2020.08beta2(Unknown compile time)
(GPL source distribution)
Java Runtime: Java(TM) SE Runtime Environment
JVM: Java HotSpot(TM) 64-Bit Server VM
Java Version: 14.0.1+7
Operating System: Linux
Default Encoding: UTF-8
Language: en
Country: US
--></g></svg>